<svg width="199" height="199" viewBox="0 0 199 199" fill="none" xmlns="http://www.w3.org/2000/svg">
<g opacity="0.2">
<path d="M110.047 64.1533C111.126 62.6455 113.222 62.2972 114.73 63.3753L127.744 72.6815C129.252 73.7597 129.6 75.856 128.522 77.3638L88.0577 133.953C86.9795 135.461 84.8832 135.809 83.3754 134.731L70.3608 125.424C68.853 124.346 68.5048 122.25 69.5829 120.742L110.047 64.1533Z" fill="#F56700"/>
<path d="M133.952 110.048C135.46 111.126 135.808 113.222 134.73 114.73L125.424 127.745C124.346 129.253 122.25 129.601 120.742 128.523L64.1528 88.0583C62.645 86.9801 62.2967 84.8838 63.3749 83.376L72.6811 70.3614C73.7592 68.8536 75.8556 68.5054 77.3634 69.5835L133.952 110.048Z" fill="#F56700"/>
</g>
<path d="M44.8457 41.5315L46.2531 40.2399L58.5953 46.2907L57.0275 47.7291L53.748 46.0137L49.9738 49.478L51.4046 52.8889L49.8368 54.3273L44.8457 41.5315ZM52.3373 45.2794L47.0521 42.516L49.3587 48.0128L52.3373 45.2794Z" fill="#F56700"/>
<path d="M60.4008 45.1427L55.3696 37.2529L59.6352 34.5429C60.1534 34.2124 60.6348 34.0389 61.0761 34.0189C61.5207 33.9988 61.9152 34.0789 62.2595 34.2625C62.6038 34.4461 62.8846 34.7097 63.1052 35.0501C63.376 35.474 63.5164 35.9179 63.5265 36.3818C63.5365 36.849 63.3961 37.2963 63.0986 37.7235C63.6502 37.5566 64.175 37.5499 64.6764 37.6968C65.1779 37.8436 65.5891 38.1707 65.91 38.6746C66.2042 39.1385 66.3412 39.5958 66.3145 40.0497C66.2911 40.5036 66.1239 40.9408 65.8164 41.3646C65.5088 41.7885 65.0776 42.1723 64.5293 42.5194L60.4008 45.1427ZM59.1171 39.6358L61.3702 38.2041C61.5842 38.0672 61.738 37.8903 61.8316 37.6701C61.9252 37.4498 61.9586 37.2228 61.9352 36.9926C61.9085 36.7623 61.8383 36.552 61.7146 36.3618C61.5173 36.0514 61.2566 35.8545 60.9323 35.7744C60.6081 35.6909 60.2905 35.751 59.9762 35.9513L57.693 37.4031L59.1171 39.6358ZM61.2499 42.98L63.7471 41.3947C63.961 41.2578 64.1215 41.081 64.2318 40.864C64.3421 40.6471 64.3923 40.4168 64.3823 40.1765C64.3722 39.9362 64.302 39.7159 64.175 39.5157C64.0346 39.2954 63.8608 39.1319 63.6568 39.0217C63.4529 38.9116 63.2289 38.8615 62.9916 38.8649C62.7509 38.8682 62.5269 38.9383 62.313 39.0751L59.7857 40.6805L61.2499 42.98Z" fill="#F56700"/>
<path d="M71.77 38.671L68.7146 31.7057L65.8563 32.9572L65.1543 31.3552L72.7094 28.0511L73.4114 29.6531L70.5498 30.9047L73.6053 37.87L71.77 38.671Z" fill="#F56700"/>
<path d="M82.8085 34.9737C82.0864 35.1606 81.4078 35.2007 80.7726 35.1006C80.1375 35.0004 79.5558 34.7835 79.031 34.4531C78.5028 34.1227 78.0582 33.7055 77.6938 33.2015C77.3294 32.7009 77.0653 32.1369 76.9048 31.5128C76.7377 30.8687 76.6942 30.2379 76.7711 29.6204C76.848 29.003 77.0385 28.4256 77.3394 27.8816C77.6403 27.3376 78.0481 26.867 78.5596 26.4699C79.0711 26.0727 79.6828 25.7857 80.3949 25.6021C81.117 25.4152 81.7922 25.3752 82.4241 25.4786C83.0525 25.5821 83.6342 25.799 84.1657 26.1261C84.6973 26.4565 85.1486 26.8737 85.513 27.3743C85.8773 27.8749 86.1448 28.449 86.3119 29.0965C86.4724 29.7206 86.5125 30.338 86.4356 30.9554C86.3587 31.5729 86.1682 32.1502 85.8673 32.6976C85.5664 33.2416 85.1586 33.7122 84.6471 34.1093C84.1323 34.5032 83.5206 34.7902 82.8085 34.9737ZM78.8738 30.9888C79.0243 31.5729 79.2817 32.0635 79.6461 32.4606C80.0104 32.8578 80.4283 33.1348 80.903 33.2917C81.3777 33.4519 81.8658 33.4652 82.3672 33.3384C82.8921 33.2049 83.3233 32.9512 83.6643 32.5841C84.0053 32.217 84.236 31.7631 84.3596 31.2324C84.4833 30.6984 84.4733 30.1511 84.3262 29.5904C84.1791 29.0164 83.9217 28.5291 83.5573 28.1286C83.1929 27.7281 82.7684 27.4477 82.287 27.2909C81.8056 27.134 81.3142 27.1207 80.8128 27.2475C80.3013 27.381 79.8734 27.6346 79.5391 28.0151C79.2014 28.3956 78.9708 28.8461 78.8438 29.3668C78.7167 29.8841 78.7267 30.4281 78.8738 30.9888Z" fill="#F56700"/>
<path d="M95.3583 32.9939C94.6028 33.0506 93.9242 32.9205 93.3191 32.6067C92.7174 32.293 92.2259 31.8692 91.8482 31.3385L92.2627 36.892L90.2837 37.0389L89.3042 23.8826L91.0492 23.7524L91.1763 25.4412C91.4938 24.8571 91.9284 24.3765 92.48 24.0027C93.0316 23.6289 93.6601 23.412 94.3688 23.3619C95.0173 23.3152 95.6191 23.3987 96.1807 23.6123C96.7389 23.8292 97.2337 24.1463 97.6649 24.5668C98.0962 24.9873 98.4405 25.4779 98.7079 26.0386C98.972 26.5993 99.1292 27.1967 99.176 27.8408C99.2428 28.7319 99.1258 29.5596 98.8283 30.3272C98.5308 31.0949 98.0795 31.7156 97.4844 32.1896C96.8894 32.6635 96.174 32.9338 95.3583 32.9939ZM94.5861 31.3518C95.0173 31.3185 95.3984 31.2017 95.726 31.0014C96.0536 30.7978 96.3278 30.5408 96.5451 30.2271C96.7623 29.9134 96.9228 29.5663 97.0298 29.1858C97.1334 28.8054 97.1702 28.4049 97.1401 27.9944C97.1067 27.5571 97.0064 27.1566 96.8326 26.7962C96.6587 26.4358 96.428 26.122 96.1372 25.8584C95.8464 25.5947 95.5188 25.3945 95.151 25.2543C94.7833 25.1141 94.3989 25.0607 93.9877 25.0908C93.7236 25.1108 93.4595 25.1775 93.1988 25.291C92.9347 25.4045 92.6839 25.5547 92.4432 25.7382C92.2025 25.9218 92.002 26.1287 91.8382 26.359C91.6744 26.5893 91.5741 26.8429 91.534 27.1199L91.7145 29.5429C91.9117 29.9067 92.1591 30.2305 92.4566 30.5108C92.7541 30.7912 93.0918 31.0081 93.4662 31.1649C93.8406 31.3218 94.215 31.3785 94.5861 31.3518Z" fill="#F56700"/>
<path d="M106.363 33.2212C105.631 33.1511 104.983 32.9609 104.414 32.6505C103.846 32.3401 103.368 31.9329 102.98 31.4356C102.592 30.9384 102.312 30.3877 102.131 29.7836C101.954 29.1795 101.894 28.5587 101.957 27.9179C102.041 27.0402 102.315 26.2559 102.783 25.565C103.251 24.8742 103.869 24.3469 104.648 23.9864C105.427 23.626 106.306 23.4891 107.289 23.5826C108.249 23.6727 109.061 23.9664 109.736 24.4603C110.408 24.9543 110.883 25.5684 111.164 26.3093L109.168 26.7165C108.987 26.3126 108.72 25.9822 108.356 25.7252C107.995 25.4682 107.573 25.3147 107.092 25.268C106.564 25.2179 106.076 25.3047 105.624 25.5283C105.173 25.7519 104.802 26.0857 104.511 26.5296C104.22 26.9734 104.047 27.5008 103.986 28.1115C103.93 28.7123 104.003 29.2629 104.21 29.7569C104.418 30.2508 104.722 30.658 105.126 30.9784C105.531 31.2955 105.992 31.479 106.507 31.5291C106.831 31.5591 107.149 31.5324 107.456 31.449C107.767 31.3656 108.048 31.2321 108.302 31.0485C108.556 30.8683 108.74 30.668 108.857 30.4511L110.722 31.2254C110.475 31.6593 110.137 32.0397 109.706 32.3601C109.275 32.6805 108.777 32.9208 108.205 33.0777C107.634 33.2345 107.022 33.2813 106.363 33.2212Z" fill="#F56700"/>
<path d="M112.965 33.9551L115.312 24.9005L117.218 25.3911L116.445 28.3748L118.648 28.9422C119.731 29.2225 120.484 29.7098 120.908 30.404C121.333 31.0982 121.426 31.8892 121.199 32.7769C121.045 33.3643 120.791 33.8616 120.43 34.2688C120.069 34.676 119.618 34.953 119.076 35.0998C118.535 35.25 117.906 35.2333 117.198 35.0464L112.965 33.9551ZM115.252 32.9638L117.298 33.4912C117.672 33.5879 117.993 33.5946 118.261 33.5112C118.531 33.4277 118.755 33.2776 118.936 33.064C119.116 32.847 119.243 32.5967 119.317 32.3097C119.391 32.0227 119.404 31.7523 119.35 31.4954C119.3 31.2384 119.177 31.0047 118.983 30.7945C118.789 30.5842 118.488 30.4274 118.08 30.3239L116.071 29.8033L115.252 32.9638Z" fill="#F56700"/>
<path d="M122.724 36.7155L126.454 28.1349L128.26 28.9159L126.785 32.3034L127.648 32.6772L131.673 30.3944L133.692 31.2688L128.724 34.0489L130.309 39.9996L128.223 39.0951L126.919 34.3059L126.073 33.9387L124.529 37.4932L122.724 36.7155Z" fill="#F56700"/>
<path d="M132.372 41.1407L137.473 33.3176L139.121 34.389L135.467 39.9959L143.143 36.9822L144.67 37.9767L139.559 45.8165L137.894 44.7351L141.481 39.235L133.929 42.1586L132.372 41.1407Z" fill="#F56700"/>
<path d="M142.046 47.7559L148.431 40.9341L149.868 42.2757L145.295 47.1618L153.375 45.5197L154.709 46.7613L148.314 53.5964L146.863 52.2414L151.353 47.4455L143.41 49.0174L142.046 47.7559ZM152.295 43.0867C151.644 42.4793 151.293 41.8485 151.242 41.191C151.189 40.5336 151.4 39.9562 151.868 39.4556L152.817 40.34C152.58 40.5936 152.466 40.8873 152.476 41.2178C152.486 41.5482 152.687 41.8953 153.074 42.2557C153.452 42.6095 153.796 42.783 154.107 42.7763C154.418 42.7697 154.722 42.6428 155.02 42.3959L155.956 43.2703C155.488 43.7709 154.926 44.0179 154.271 44.0146C153.613 44.0112 152.954 43.7008 152.295 43.0867Z" fill="#F56700"/>
<path d="M153.847 60.3048L161.756 55.2919L166.112 62.137L158.203 67.1499L157.14 65.4778L163.571 61.3994L161.335 57.8851L154.903 61.9635L153.847 60.3048Z" fill="#F56700"/>
<path d="M159.643 70.1606L168.184 66.1423L169.03 67.9345L160.489 71.9528L159.643 70.1606ZM169.588 65.4814L171.564 64.5503L172.41 66.3425L170.434 67.2737L169.588 65.4814Z" fill="#F56700"/>
<path d="M159.479 74.7798L163.277 73.5617L163.344 73.7686C163.421 74.0089 163.565 74.2125 163.775 74.3793C163.986 74.5462 164.28 74.6497 164.664 74.6897C165.046 74.7298 165.554 74.7098 166.185 74.6297C166.817 74.5496 167.596 74.376 168.529 74.1157L171.23 73.3447L173.289 79.746L166.018 82.0755L166.416 83.3104L162.619 84.5286L162.084 82.8632L164.233 82.1757L162.164 75.741L160.014 76.4286L159.479 74.7798ZM164.146 76.255L165.41 80.1832L171.046 78.3776L170.13 75.5274L168.857 75.8779C167.997 76.1148 167.259 76.2817 166.647 76.3785C166.035 76.4753 165.527 76.5086 165.126 76.4886C164.725 76.4686 164.4 76.3885 164.146 76.255Z" fill="#F56700"/>
<path d="M174.633 86.0336L171.785 88.7236L171.508 88.9272L171.832 89.044L175.325 90.7761L175.636 92.8988L170.521 90.2188L166.373 94.2838L166.065 92.1779L168.893 89.4712L169.154 89.2709L168.85 89.1708L165.367 87.3819L165.056 85.2593L170.177 87.9727L174.332 83.9443L174.633 86.0336Z" fill="#F56700"/>
<path d="M166.363 96.5898L175.8 96.3228L175.857 98.3052L166.42 98.5722L166.363 96.5898ZM177.351 96.2827L179.534 96.2227L179.591 98.2051L177.408 98.2652L177.351 96.2827Z" fill="#F56700"/>
<path d="M164.357 100.772L168.328 101.165L168.308 101.379C168.285 101.629 168.335 101.873 168.458 102.11C168.586 102.347 168.816 102.557 169.15 102.747C169.485 102.938 169.959 103.121 170.568 103.295C171.18 103.468 171.965 103.622 172.921 103.755L175.706 104.122L175.041 110.811L167.442 110.056L167.315 111.348L163.344 110.954L163.518 109.215L165.764 109.439L166.433 102.714L164.186 102.49L164.357 100.772ZM168.047 103.982L167.639 108.091L173.53 108.675L173.827 105.698L172.52 105.514C171.638 105.391 170.896 105.25 170.294 105.094C169.695 104.937 169.214 104.77 168.856 104.59C168.499 104.409 168.228 104.206 168.047 103.982Z" fill="#F56700"/>
<path d="M161.893 117.302L165.627 118.701L165.551 118.904C165.46 119.141 165.447 119.388 165.51 119.649C165.571 119.909 165.741 120.173 166.015 120.443C166.289 120.713 166.701 121.01 167.245 121.337C167.79 121.664 168.509 122.015 169.402 122.385L171.999 123.453L169.632 129.748L162.485 127.068L162.027 128.283L158.293 126.884L158.908 125.249L161.021 126.04L163.401 119.712L161.288 118.921L161.893 117.302ZM164.631 121.351L163.177 125.216L168.72 127.295L169.773 124.495L168.556 123.981C167.733 123.634 167.052 123.306 166.513 123.003C165.975 122.699 165.554 122.412 165.253 122.145C164.955 121.878 164.748 121.614 164.631 121.351Z" fill="#F56700"/>
<path d="M156.949 133.426C157.33 132.785 157.781 132.277 158.299 131.9C158.821 131.523 159.386 131.27 159.994 131.133C160.603 130.996 161.215 130.976 161.826 131.076C162.441 131.173 163.023 131.386 163.578 131.713C164.153 132.054 164.631 132.468 165.012 132.958C165.393 133.449 165.671 133.993 165.841 134.59C166.012 135.188 166.059 135.809 165.975 136.449C165.891 137.09 165.664 137.728 165.29 138.358C164.909 138.999 164.461 139.506 163.942 139.877C163.424 140.247 162.859 140.504 162.248 140.645C161.636 140.785 161.024 140.808 160.412 140.711C159.797 140.614 159.205 140.394 158.63 140.054C158.076 139.727 157.611 139.316 157.23 138.826C156.849 138.335 156.571 137.791 156.401 137.194C156.23 136.596 156.183 135.975 156.267 135.335C156.347 134.69 156.575 134.056 156.949 133.426ZM162.555 133.472C162.034 133.165 161.505 132.998 160.967 132.975C160.429 132.952 159.938 133.048 159.486 133.272C159.038 133.496 158.681 133.829 158.416 134.273C158.139 134.737 158.012 135.221 158.032 135.722C158.052 136.222 158.206 136.706 158.497 137.17C158.788 137.634 159.182 138.015 159.68 138.312C160.192 138.612 160.716 138.779 161.258 138.806C161.8 138.832 162.298 138.732 162.749 138.505C163.2 138.278 163.561 137.941 163.822 137.497C164.093 137.043 164.213 136.563 164.183 136.056C164.153 135.548 163.999 135.068 163.718 134.607C163.444 134.146 163.057 133.769 162.555 133.472Z" fill="#F56700"/>
<path d="M153.048 139.743L160.205 145.777L158.935 147.279L156.107 144.896L155.502 145.614L156.534 150.119L155.114 151.798L153.877 146.251L147.712 146.054L149.18 144.319L154.148 144.449L154.743 143.748L151.777 141.248L153.048 139.743Z" fill="#F56700"/>
<path d="M144.276 149.159L149.29 154.882L151.64 152.83L152.794 154.145L146.582 159.565L145.429 158.25L147.779 156.197L142.765 150.474L144.276 149.159Z" fill="#F56700"/>
<path d="M134.865 156.013C135.497 155.616 136.132 155.373 136.767 155.276C137.403 155.179 138.021 155.212 138.626 155.369C139.228 155.526 139.779 155.79 140.281 156.157C140.782 156.524 141.204 156.981 141.545 157.525C141.899 158.089 142.133 158.677 142.247 159.287C142.36 159.898 142.357 160.509 142.233 161.116C142.113 161.727 141.865 162.298 141.498 162.828C141.13 163.359 140.635 163.823 140.01 164.21C139.378 164.604 138.746 164.848 138.115 164.941C137.483 165.035 136.864 165.001 136.256 164.848C135.648 164.694 135.096 164.434 134.594 164.063C134.093 163.696 133.665 163.229 133.311 162.665C132.97 162.121 132.742 161.544 132.629 160.933C132.515 160.322 132.519 159.711 132.642 159.104C132.763 158.493 133.01 157.922 133.378 157.392C133.745 156.864 134.243 156.404 134.865 156.013ZM139.823 158.623C139.502 158.113 139.107 157.722 138.643 157.455C138.178 157.188 137.693 157.051 137.192 157.041C136.691 157.035 136.219 157.168 135.781 157.442C135.323 157.729 134.986 158.099 134.775 158.553C134.564 159.007 134.477 159.508 134.524 160.052C134.568 160.596 134.745 161.116 135.052 161.607C135.367 162.108 135.758 162.498 136.229 162.768C136.697 163.042 137.185 163.179 137.693 163.186C138.202 163.189 138.673 163.055 139.111 162.782C139.559 162.501 139.886 162.128 140.094 161.664C140.301 161.2 140.384 160.699 140.348 160.165C140.304 159.628 140.13 159.114 139.823 158.623Z" fill="#F56700"/>
<path d="M123.502 161.693C124.204 161.413 124.893 161.33 125.562 161.446C126.23 161.563 126.825 161.82 127.347 162.214L125.271 157.044L127.113 156.307L132.03 168.552L130.406 169.203L129.774 167.631C129.647 168.285 129.379 168.872 128.965 169.396C128.55 169.92 128.019 170.314 127.357 170.578C126.755 170.818 126.153 170.922 125.555 170.885C124.957 170.848 124.388 170.695 123.853 170.421C123.315 170.147 122.837 169.787 122.416 169.333C121.995 168.879 121.664 168.355 121.423 167.758C121.089 166.93 120.948 166.102 121.002 165.281C121.055 164.46 121.293 163.733 121.721 163.099C122.152 162.464 122.743 161.997 123.502 161.693ZM124.739 163.025C124.338 163.185 124.01 163.412 123.756 163.706C123.502 164 123.322 164.327 123.208 164.69C123.094 165.054 123.048 165.435 123.064 165.832C123.081 166.229 123.165 166.616 123.322 167.003C123.486 167.411 123.703 167.761 123.977 168.051C124.251 168.345 124.565 168.572 124.923 168.735C125.281 168.899 125.655 168.992 126.046 169.013C126.437 169.036 126.822 168.969 127.203 168.819C127.45 168.722 127.681 168.579 127.895 168.388C128.112 168.198 128.306 167.981 128.48 167.734C128.654 167.487 128.784 167.227 128.868 166.96C128.955 166.69 128.975 166.419 128.928 166.142L128.022 163.889C127.724 163.602 127.39 163.369 127.022 163.192C126.655 163.015 126.267 162.908 125.862 162.872C125.458 162.835 125.084 162.885 124.739 163.025Z" fill="#F56700"/>
<path d="M118.405 166.603C118.528 167.187 118.468 167.731 118.224 168.238C117.98 168.745 117.586 169.183 117.041 169.546C116.496 169.91 115.841 170.174 115.075 170.334C114.664 170.421 114.239 170.478 113.801 170.501C113.364 170.524 112.962 170.514 112.595 170.468L112.715 171.045C112.849 171.682 113.15 172.14 113.614 172.417C114.079 172.694 114.674 172.757 115.406 172.603C115.924 172.493 116.396 172.303 116.817 172.029C117.238 171.756 117.673 171.389 118.114 170.928L119.03 172.116C118.525 172.64 117.984 173.071 117.402 173.408C116.82 173.745 116.188 173.985 115.506 174.129C114.269 174.389 113.23 174.269 112.387 173.775C111.545 173.278 110.997 172.437 110.749 171.252L110.034 167.851C109.987 167.631 109.914 167.48 109.81 167.407C109.71 167.33 109.563 167.307 109.372 167.337L109.044 165.785C109.215 165.712 109.365 165.655 109.499 165.615C109.633 165.575 109.743 165.538 109.837 165.508C110.265 165.431 110.602 165.468 110.856 165.625C111.11 165.778 111.284 165.989 111.374 166.252L111.538 166.77C111.819 166.172 112.244 165.665 112.812 165.248C113.384 164.834 113.985 164.56 114.62 164.427C115.232 164.297 115.807 164.307 116.342 164.457C116.877 164.607 117.328 164.867 117.689 165.241C118.054 165.612 118.291 166.065 118.405 166.603ZM112.404 167.27C112.307 167.46 112.234 167.637 112.177 167.808C112.12 167.978 112.107 168.125 112.133 168.251L112.351 169.276C112.708 169.333 113.076 169.356 113.454 169.343C113.832 169.329 114.193 169.286 114.534 169.216C115.252 169.066 115.804 168.805 116.185 168.435C116.569 168.065 116.71 167.637 116.606 167.15C116.549 166.883 116.422 166.649 116.225 166.443C116.028 166.236 115.774 166.085 115.466 165.985C115.155 165.889 114.801 165.882 114.4 165.965C113.965 166.055 113.571 166.229 113.216 166.476C112.859 166.723 112.591 166.987 112.404 167.27Z" fill="#F56700"/>
<path d="M100.6 166.453L99.9445 179.232L97.9254 179.128L98.1995 173.782L96.7018 173.705L92.3894 178.845L90.1162 178.728L95.1206 172.774L90.4104 165.929L92.8808 166.055L96.7954 171.866L98.2931 171.943L98.5806 166.346L100.6 166.453Z" fill="#F56700"/>
<path d="M83.9854 164.317C84.7109 164.491 85.3327 164.768 85.8441 165.155C86.3589 165.539 86.7701 166.003 87.081 166.54C87.3919 167.077 87.5925 167.655 87.6794 168.269C87.7697 168.883 87.7362 169.504 87.5892 170.128C87.4354 170.775 87.178 171.356 86.8236 171.863C86.4659 172.371 86.028 172.798 85.5098 173.138C84.9883 173.479 84.41 173.706 83.7715 173.816C83.133 173.926 82.4544 173.899 81.7423 173.729C81.0169 173.555 80.3984 173.278 79.8903 172.895C79.3822 172.511 78.971 172.047 78.6534 171.51C78.3358 170.969 78.1353 170.391 78.045 169.777C77.9581 169.163 77.9882 168.532 78.1453 167.882C78.2957 167.258 78.5464 166.69 78.9041 166.18C79.2618 165.672 79.6998 165.245 80.2213 164.905C80.7428 164.564 81.3211 164.337 81.9596 164.227C82.5948 164.12 83.2734 164.147 83.9854 164.317ZM85.6034 169.677C85.7438 169.09 85.7472 168.536 85.6101 168.015C85.4731 167.495 85.2324 167.054 84.8847 166.694C84.537 166.33 84.1125 166.089 83.611 165.969C83.0828 165.842 82.5847 165.866 82.11 166.033C81.6387 166.2 81.2208 166.49 80.8631 166.904C80.5054 167.318 80.258 167.808 80.1243 168.372C79.9873 168.95 79.9839 169.5 80.121 170.024C80.2547 170.548 80.4987 170.996 80.8531 171.359C81.2041 171.723 81.632 171.963 82.1368 172.084C82.6516 172.207 83.1464 172.177 83.6244 171.997C84.0991 171.817 84.517 171.526 84.8713 171.126C85.2257 170.725 85.4697 170.241 85.6034 169.677Z" fill="#F56700"/>
<path d="M76.8111 162.595L72.9533 171.119L71.0779 170.275L70.4996 163.677L65.1575 167.605L63.2988 166.767L67.1566 158.243L68.8682 159.014L66.147 165.028L70.7336 161.681L71.8702 162.191L72.3917 167.825L75.1062 161.828L76.8111 162.595Z" fill="#F56700"/>
<path d="M63.4729 159.201C63.1319 159.688 62.6939 160.018 62.1557 160.189C61.6175 160.359 61.0325 160.372 60.394 160.225C59.7555 160.078 59.117 159.781 58.4751 159.334C58.1308 159.094 57.7998 158.824 57.4789 158.52C57.158 158.216 56.8939 157.919 56.6766 157.622L56.339 158.106C55.9679 158.64 55.8375 159.171 55.9545 159.698C56.0715 160.225 56.4359 160.703 57.0477 161.13C57.4823 161.433 57.9436 161.644 58.4317 161.764C58.9197 161.884 59.4847 161.947 60.1265 161.954L59.8859 163.433C59.1571 163.423 58.4718 163.322 57.8299 163.132C57.1881 162.942 56.5797 162.645 56.0047 162.248C54.9684 161.527 54.3432 160.689 54.1293 159.735C53.9153 158.78 54.156 157.809 54.848 156.814L56.8371 153.964C56.9674 153.777 57.0243 153.624 57.0076 153.497C56.9942 153.37 56.9106 153.247 56.7602 153.13L57.6695 151.828C57.8366 151.902 57.9837 151.972 58.1041 152.042C58.2244 152.112 58.328 152.169 58.4149 152.212C58.7626 152.469 58.9699 152.743 59.0301 153.033C59.0902 153.323 59.0568 153.594 58.9264 153.841L58.6623 154.315C59.2908 154.108 59.9527 154.071 60.6447 154.201C61.3367 154.331 61.9518 154.582 62.4833 154.955C62.9982 155.313 63.3826 155.736 63.64 156.23C63.8974 156.721 64.0144 157.228 63.9877 157.746C63.9576 158.27 63.7871 158.753 63.4729 159.201ZM58.8763 155.293C58.6724 155.353 58.4918 155.419 58.328 155.493C58.1642 155.566 58.0472 155.656 57.9737 155.763L57.3753 156.621C57.5759 156.921 57.8132 157.202 58.0807 157.469C58.3481 157.736 58.6256 157.969 58.913 158.166C59.5148 158.587 60.0831 158.807 60.6146 158.834C61.1462 158.86 61.5573 158.667 61.8415 158.26C61.9986 158.036 62.0822 157.782 62.0989 157.499C62.1156 157.215 62.0521 156.925 61.9117 156.634C61.7713 156.341 61.5339 156.08 61.1963 155.847C60.8319 155.593 60.4374 155.423 60.0129 155.336C59.5883 155.249 59.2072 155.236 58.8763 155.293Z" fill="#F56700"/>
<path d="M51.9161 146.224C52.4543 146.758 52.802 147.352 52.9625 148.013C53.1229 148.674 53.1229 149.321 52.9691 149.955L56.8938 145.997L58.3045 147.392L49.0077 156.767L47.7642 155.536L48.9576 154.331C48.3057 154.474 47.6572 154.461 47.012 154.294C46.3668 154.124 45.7918 153.79 45.287 153.293C44.8257 152.836 44.4914 152.328 44.2875 151.764C44.0835 151.2 44 150.62 44.0367 150.019C44.0735 149.418 44.2173 148.834 44.4646 148.27C44.712 147.703 45.063 147.192 45.5177 146.735C46.1462 146.101 46.8515 145.643 47.6271 145.363C48.4027 145.083 49.1682 145.013 49.917 145.153C50.6692 145.293 51.3344 145.65 51.9161 146.224ZM51.184 147.886C50.8765 147.583 50.5388 147.372 50.1677 147.259C49.8 147.145 49.4256 147.109 49.0445 147.149C48.6634 147.189 48.2957 147.295 47.938 147.469C47.5803 147.643 47.256 147.873 46.9652 148.17C46.6576 148.48 46.4203 148.821 46.2632 149.188C46.1027 149.555 46.0191 149.935 46.0091 150.326C46.0024 150.716 46.0659 151.097 46.1996 151.464C46.3367 151.831 46.5473 152.158 46.8382 152.445C47.0254 152.632 47.2493 152.786 47.5101 152.909C47.7675 153.033 48.045 153.123 48.3425 153.183C48.64 153.243 48.9275 153.26 49.2083 153.23C49.4891 153.203 49.7499 153.113 49.9839 152.963L51.6955 151.237C51.8426 150.85 51.9228 150.453 51.9395 150.042C51.9562 149.635 51.8994 149.238 51.7724 148.854C51.6453 148.47 51.4481 148.147 51.184 147.886Z" fill="#F56700"/>
<path d="M44.9061 137.831C45.3374 138.441 45.6149 139.059 45.7452 139.686C45.8756 140.314 45.8789 140.934 45.7553 141.542C45.6316 142.153 45.3976 142.717 45.0566 143.234C44.7156 143.755 44.281 144.199 43.7562 144.569C43.2113 144.953 42.6363 145.216 42.0312 145.363C41.4261 145.51 40.8177 145.537 40.1993 145.45C39.5841 145.363 38.9991 145.15 38.4442 144.809C37.8926 144.472 37.4045 144.002 36.98 143.404C36.5487 142.797 36.2713 142.179 36.1442 141.555C36.0172 140.931 36.0139 140.314 36.1342 139.7C36.2546 139.086 36.4852 138.518 36.8262 138.001C37.1672 137.48 37.6118 137.03 38.1567 136.646C38.6849 136.275 39.2499 136.018 39.8516 135.872C40.4567 135.725 41.0651 135.698 41.6835 135.785C42.2986 135.872 42.8837 136.085 43.4386 136.426C43.9935 136.763 44.4816 137.23 44.9061 137.831ZM42.5661 142.914C43.0608 142.566 43.4286 142.153 43.6726 141.672C43.9166 141.191 44.0269 140.704 44.0069 140.204C43.9868 139.703 43.8297 139.242 43.5288 138.819C43.218 138.378 42.8268 138.061 42.3622 137.874C41.8975 137.687 41.3927 137.63 40.8478 137.704C40.3062 137.777 39.7948 137.981 39.3201 138.315C38.8353 138.655 38.4676 139.069 38.2202 139.549C37.9728 140.033 37.8625 140.527 37.8826 141.031C37.906 141.535 38.0664 142.002 38.364 142.423C38.6682 142.857 39.0593 143.161 39.534 143.341C40.0087 143.521 40.5135 143.578 41.0484 143.511C41.5832 143.451 42.088 143.247 42.5661 142.914Z" fill="#F56700"/>
<path d="M40.7274 131.696L32.2731 135.728L30.0935 131.176C29.8294 130.622 29.7124 130.124 29.7458 129.684C29.7792 129.243 29.9096 128.859 30.1302 128.542C30.3542 128.222 30.6484 127.975 31.0161 127.801C31.4674 127.585 31.9288 127.501 32.3934 127.545C32.8581 127.588 33.286 127.785 33.6771 128.132C33.5802 127.568 33.6337 127.044 33.8409 126.567C34.0482 126.089 34.4226 125.719 34.9608 125.462C35.4556 125.225 35.9303 125.148 36.3783 125.225C36.8262 125.305 37.2407 125.522 37.6252 125.879C38.0063 126.236 38.3372 126.707 38.618 127.294L40.7274 131.696ZM35.0979 132.307L33.9479 129.901C33.8376 129.674 33.6805 129.5 33.4699 129.38C33.2626 129.26 33.042 129.2 32.808 129.197C32.5773 129.193 32.36 129.24 32.1561 129.337C31.8251 129.494 31.5978 129.731 31.4775 130.041C31.3571 130.351 31.3772 130.675 31.5376 131.012L32.7043 133.452L35.0979 132.307ZM38.6816 130.598L37.4045 127.932C37.2942 127.705 37.1404 127.521 36.9365 127.388C36.7326 127.251 36.512 127.174 36.2713 127.154C36.0306 127.134 35.8033 127.177 35.5893 127.278C35.352 127.391 35.1681 127.541 35.0377 127.731C34.904 127.922 34.8271 128.135 34.8004 128.372C34.777 128.609 34.8171 128.843 34.9274 129.07L36.2178 131.77L38.6816 130.598Z" fill="#F56700"/>
<path d="M35.2713 117.666C35.4752 118.37 35.5387 119.044 35.4585 119.685C35.3783 120.329 35.1777 120.92 34.8568 121.464C34.5359 122.008 34.128 122.472 33.6333 122.859C33.1385 123.246 32.5802 123.53 31.9618 123.707C31.1127 123.951 30.2836 123.987 29.4679 123.81C28.6522 123.633 27.9335 123.25 27.3084 122.662C26.6832 122.075 26.2353 121.307 25.9611 120.359C25.6937 119.435 25.6636 118.571 25.8776 117.766C26.0882 116.962 26.486 116.291 27.071 115.76L28.1842 117.466C27.8733 117.78 27.6661 118.153 27.5591 118.584C27.4521 119.014 27.4655 119.462 27.5992 119.922C27.7463 120.43 28.007 120.853 28.3848 121.187C28.7592 121.524 29.2072 121.744 29.7253 121.851C30.2435 121.958 30.7984 121.925 31.3935 121.754C31.9751 121.588 32.4599 121.314 32.8443 120.94C33.2288 120.566 33.4962 120.132 33.6433 119.639C33.7904 119.145 33.7937 118.651 33.6466 118.153C33.5564 117.843 33.416 117.556 33.2221 117.302C33.0282 117.045 32.8009 116.832 32.5401 116.665C32.2794 116.498 32.0253 116.398 31.7779 116.368L31.8113 114.349C32.3094 114.419 32.7841 114.592 33.2421 114.873C33.7001 115.153 34.108 115.53 34.4623 116.001C34.8167 116.478 35.0874 117.032 35.2713 117.666Z" fill="#F56700"/>
<path d="M33.5267 111.271L24.2299 112.429L23.9858 110.48L27.048 110.1L26.7672 107.847C26.6301 106.739 26.804 105.861 27.2954 105.21C27.7868 104.563 28.4855 104.183 29.3981 104.069C30.0032 103.992 30.5581 104.049 31.0696 104.233C31.5811 104.416 32.0023 104.733 32.3433 105.184C32.6809 105.631 32.8948 106.218 32.9884 106.946L33.5267 111.271ZM31.7616 109.509L31.5008 107.417C31.454 107.036 31.3404 106.736 31.1632 106.515C30.986 106.295 30.7654 106.142 30.4979 106.055C30.2305 105.968 29.9497 105.941 29.6555 105.978C29.3613 106.015 29.1039 106.105 28.8833 106.245C28.6626 106.389 28.4922 106.589 28.3685 106.846C28.2448 107.103 28.2113 107.44 28.2615 107.857L28.5189 109.913L31.7616 109.509Z" fill="#F56700"/>
<path d="M32.5038 101.195L23.1401 100.918L23.197 98.956L26.8976 99.0661L26.9244 98.1283L23.3073 95.2447L23.3708 93.0454L27.7969 96.6198L32.7445 92.9419L32.6776 95.2114L28.7062 98.1951L28.6794 99.1129L32.5573 99.2263L32.5038 101.195Z" fill="#F56700"/>
<path d="M34.0347 86.4806C33.8909 87.2115 33.6335 87.8422 33.2691 88.3696C32.9014 88.8969 32.4568 89.3274 31.9286 89.6578C31.4004 89.9882 30.8321 90.2085 30.2204 90.322C29.6086 90.4321 28.9868 90.4255 28.355 90.302C27.6998 90.1718 27.1114 89.9382 26.5866 89.6044C26.0651 89.2674 25.6204 88.8468 25.2594 88.3395C24.8984 87.8322 24.651 87.2649 24.5139 86.6307C24.3769 85.9966 24.3802 85.3225 24.524 84.6016C24.6677 83.8707 24.9251 83.2432 25.2895 82.7226C25.6539 82.2019 26.1018 81.7714 26.63 81.4343C27.1582 81.0972 27.7299 80.8736 28.3416 80.7635C28.9534 80.6533 29.5852 80.66 30.2404 80.7902C30.8722 80.9137 31.4506 81.1473 31.9721 81.481C32.4936 81.8181 32.9382 82.2386 33.2992 82.7459C33.6603 83.2532 33.9077 83.8206 34.0447 84.4547C34.1818 85.0855 34.1784 85.7597 34.0347 86.4806ZM28.7327 88.2961C29.3278 88.413 29.8794 88.3929 30.3942 88.2394C30.909 88.0826 31.3403 87.8256 31.6913 87.4684C32.0423 87.108 32.2663 86.6741 32.3665 86.1702C32.4702 85.6395 32.4301 85.1422 32.2462 84.675C32.059 84.2111 31.7548 83.8072 31.3269 83.4635C30.899 83.1231 30.4009 82.8928 29.8292 82.7826C29.2476 82.6692 28.696 82.6859 28.1745 82.8427C27.653 82.9962 27.2184 83.2566 26.8674 83.6237C26.5164 83.9908 26.2924 84.4247 26.1921 84.932C26.0885 85.4493 26.1353 85.9432 26.3325 86.4105C26.5297 86.8777 26.8373 87.2816 27.2518 87.622C27.6697 87.9591 28.1644 88.1827 28.7327 88.2961Z" fill="#F56700"/>
<path d="M35.6729 79.2082L26.8608 76.031L28.9101 70.3706L30.5582 70.9647L29.1775 74.7794L36.3415 77.3626L35.6729 79.2082Z" fill="#F56700"/>
<path d="M40.8244 67.7309C40.4667 68.385 40.0355 68.909 39.5307 69.3061C39.0225 69.7 38.4676 69.977 37.8659 70.1372C37.2641 70.2974 36.6524 70.3374 36.0373 70.264C35.4222 70.1906 34.8271 69.997 34.2622 69.69C33.6771 69.3729 33.1824 68.9757 32.7846 68.4985C32.3868 68.0212 32.0892 67.4872 31.8953 66.8965C31.7014 66.3058 31.6346 65.6883 31.6914 65.0442C31.7516 64.4001 31.9555 63.7559 32.3065 63.1118C32.6642 62.4577 33.0921 61.937 33.5969 61.5465C34.1017 61.156 34.6566 60.879 35.2617 60.7155C35.8668 60.552 36.4785 60.5086 37.0936 60.582C37.7121 60.6588 38.3138 60.8523 38.8988 61.1727C39.4638 61.4798 39.9485 61.8703 40.3464 62.3475C40.7442 62.8248 41.0417 63.3588 41.2356 63.9495C41.4295 64.5402 41.4963 65.1577 41.4362 65.8018C41.3793 66.4426 41.1721 67.0867 40.8244 67.7309ZM35.2182 67.8911C35.7498 68.1781 36.2847 68.3249 36.8229 68.3316C37.3611 68.3349 37.8492 68.2181 38.2904 67.9778C38.7317 67.7375 39.076 67.3904 39.3234 66.9365C39.5808 66.4626 39.6911 65.9753 39.6544 65.4747C39.6142 64.9741 39.4438 64.5002 39.1362 64.0463C38.8286 63.5924 38.4208 63.2286 37.9093 62.9516C37.3878 62.6679 36.8563 62.5244 36.3147 62.5177C35.7732 62.5111 35.2784 62.6279 34.8338 62.8748C34.3892 63.1185 34.0449 63.4689 33.7975 63.9228C33.5434 64.3867 33.4431 64.8706 33.4933 65.3779C33.5434 65.8819 33.7139 66.3592 34.0114 66.8064C34.3056 67.2503 34.7101 67.614 35.2182 67.8911Z" fill="#F56700"/>
</svg>
