<svg width="36" height="35" viewBox="0 0 36 35" fill="none" xmlns="http://www.w3.org/2000/svg">
<path d="M0 15.2319V1.2139C0 0.891953 0.127893 0.583193 0.355543 0.355543C0.583193 0.127893 0.891954 0 1.2139 0L11.2305 0C11.3864 0.000213068 11.5392 0.0443796 11.6711 0.127432C11.8031 0.210485 11.909 0.32906 11.9767 0.469552C12.0443 0.610045 12.071 0.766764 12.0536 0.92173C12.0363 1.0767 11.9756 1.22363 11.8785 1.34568L5.16411 9.76701L0.930191 15.5373C0.865033 15.6231 0.774715 15.6865 0.671827 15.7186C0.56894 15.7506 0.458611 15.7498 0.356221 15.7162C0.25383 15.6826 0.164479 15.6178 0.100625 15.531C0.0367708 15.4442 0.00159457 15.3396 0 15.2319H0Z" fill="#44A1A1"/>
<path d="M5.21837 20.9403L12.8676 33.5087C12.9582 33.6575 13.0075 33.8278 13.0105 34.002C13.0135 34.1761 12.97 34.348 12.8846 34.4998C12.7992 34.6516 12.675 34.778 12.5246 34.8659C12.3742 34.9539 12.2031 35.0002 12.0289 35.0001H1.2139C1.05456 35.0003 0.896746 34.9691 0.749478 34.9083C0.60221 34.8474 0.468378 34.7582 0.355637 34.6456C0.242896 34.533 0.153456 34.3993 0.0924327 34.2521C0.0314095 34.1049 -1.3028e-07 33.9471 0 33.7878L0 25.8904C0.000100947 25.3669 0.182657 24.8598 0.516256 24.4564L3.52698 20.8163C3.63278 20.6883 3.76766 20.5876 3.92035 20.5224C4.07305 20.4573 4.23912 20.4296 4.40468 20.4418C4.57025 20.4539 4.73051 20.5055 4.87207 20.5922C5.01362 20.6789 5.13236 20.7983 5.21837 20.9403Z" fill="#44A1A1"/>
<path d="M33.7888 0H22.5226C22.2374 4.00559e-05 21.9558 0.0634895 21.6981 0.185756C21.4405 0.308022 21.2132 0.486047 21.0328 0.706945L10.5914 13.4583C10.3895 13.7047 10.2699 14.0081 10.2493 14.3259C10.2287 14.6437 10.3082 14.96 10.4767 15.2303L22.2064 34.0621C22.3861 34.3476 22.6355 34.5828 22.9311 34.7455C23.2267 34.9082 23.5588 34.9931 23.8962 34.9922H33.7888C34.1104 34.9922 34.4187 34.8645 34.6461 34.6372C34.8734 34.4098 35.0012 34.1014 35.0012 33.7799V1.2139C35.0012 0.892222 34.8735 0.583696 34.6462 0.356091C34.4189 0.128485 34.1105 0.000410827 33.7888 0V0ZM30.9843 16.7202H26.0667V21.3944H22.656V16.7279H17.5399V13.3172H22.656V8.33917H26.0667V13.3141H30.9843V16.7202Z" fill="#44A1A1"/>
</svg>
